/* XPM */
static char * Ankh_xpm[] = {
"32 32 810 2",
"  	c None",
". 	c #E2DAAB",
"+ 	c #DBD3A0",
"@ 	c #E3D8A2",
"# 	c #E5D499",
"$ 	c #EFDFA3",
"% 	c #E9D896",
"& 	c #DACA8D",
"* 	c #EBDB99",
"= 	c #E8D794",
"- 	c #E7D89C",
"; 	c #D6CEA3",
"> 	c #DFD6A8",
", 	c #DFD39D",
"' 	c #E0D39A",
") 	c #D6CA97",
"! 	c #D9CD9F",
"~ 	c #D5CA9C",
"{ 	c #D9D3AC",
"] 	c #D6C78C",
"^ 	c #B5A572",
"/ 	c #DBCC99",
"( 	c #D1C18A",
"_ 	c #E9D698",
": 	c #F1DFA1",
"< 	c #EEDC9C",
"[ 	c #E6D490",
"} 	c #F2DF9A",
"| 	c #F5E3A4",
"1 	c #F4E3A3",
"2 	c #E0D298",
"3 	c #DCCF98",
"4 	c #DFD29F",
"5 	c #DBCF9C",
"6 	c #DDD3A3",
"7 	c #DDCD92",
"8 	c #E5D294",
"9 	c #E8D591",
"0 	c #DDCA8C",
"a 	c #EAD897",
"b 	c #E9D796",
"c 	c #E6D394",
"d 	c #DFCB8D",
"e 	c #DDCA88",
"f 	c #CDBE86",
"g 	c #D4CA9F",
"h 	c #E6D89A",
"i 	c #EEDB9D",
"j 	c #ECDAA1",
"k 	c #E2CF92",
"l 	c #EFDD9F",
"m 	c #F5E3A5",
"n 	c #F5E3A1",
"o 	c #EFDC98",
"p 	c #F4E2A3",
"q 	c #F3E2A3",
"r 	c #E7D594",
"s 	c #E7D495",
"t 	c #DBC88D",
"u 	c #DCCC88",
"v 	c #D7C38A",
"w 	c #E9D693",
"x 	c #EEDD9D",
"y 	c #EFDC9B",
"z 	c #E4D291",
"A 	c #EEDC9E",
"B 	c #EBDA9B",
"C 	c #E6D397",
"D 	c #E2CE93",
"E 	c #E8D899",
"F 	c #DECE90",
"G 	c #D5D3AE",
"H 	c #ECDD9F",
"I 	c #EFE0A1",
"J 	c #F4E5A6",
"K 	c #F0DF9C",
"L 	c #F2E4A1",
"M 	c #F4E4A4",
"N 	c #F7E7AA",
"O 	c #F9EBAC",
"P 	c #F8E9AA",
"Q 	c #F7E7A7",
"R 	c #EEDB9E",
"S 	c #EDDB9E",
"T 	c #F3E2A5",
"U 	c #F4E6A8",
"V 	c #E7DBA2",
"W 	c #E9D793",
"X 	c #EFDD9C",
"Y 	c #F2E09F",
"Z 	c #EBDA98",
"` 	c #EADA9B",
" .	c #E4D294",
"..	c #E1CC8F",
"+.	c #E0CC8D",
"@.	c #E3CD8C",
"#.	c #D8C695",
"$.	c #ECDDA2",
"%.	c #F1E1A2",
"&.	c #F2E3A5",
"*.	c #EEDE9A",
"=.	c #F6E7A4",
"-.	c #F7E8A7",
";.	c #F5E6A9",
">.	c #FAECAD",
",.	c #F5E7AB",
"'.	c #DBD0A7",
").	c #DED0A0",
"!.	c #FAEBAC",
"~.	c #FAECAC",
"{.	c #F8EAA9",
"].	c #E5D592",
"^.	c #ECD995",
"/.	c #EDDB9B",
"(.	c #ECD998",
"_.	c #E9D492",
":.	c #E7D492",
"<.	c #E4D293",
"[.	c #DFCA8E",
"}.	c #DFCB8C",
"|.	c #DECB8B",
"1.	c #D8C687",
"2.	c #DED19C",
"3.	c #F0E0A4",
"4.	c #F5E6AA",
"5.	c #F4E5A8",
"6.	c #F8E8A9",
"7.	c #F7E8A9",
"8.	c #F7E8AE",
"9.	c #EBE0AB",
"0.	c #E4D87D",
"a.	c #F4E22F",
"b.	c #C7A673",
"c.	c #F6E9A7",
"d.	c #F9EBAB",
"e.	c #FAECAE",
"f.	c #FCECAD",
"g.	c #ECDA98",
"h.	c #EDDB98",
"i.	c #EDD99A",
"j.	c #EAD797",
"k.	c #E8D594",
"l.	c #E5D393",
"m.	c #DFCC8A",
"n.	c #E1CD8C",
"o.	c #E1CB8B",
"p.	c #DFCA8A",
"q.	c #D8CAA3",
"r.	c #F4E5AA",
"s.	c #F5E5A8",
"t.	c #F3E5A4",
"u.	c #F2E4A3",
"v.	c #F2E2A4",
"w.	c #F8EAA8",
"x.	c #EFE2AB",
"y.	c #E8DA67",
"z.	c #F9E00B",
"A.	c #F9DA05",
"B.	c #D3AC79",
"C.	c #F3E4A2",
"D.	c #FAEBAB",
"E.	c #F7E9AA",
"F.	c #F6E6A7",
"G.	c #F5E3A0",
"H.	c #F8E6A8",
"I.	c #F3E2A4",
"J.	c #EEDC9D",
"K.	c #F0DD9B",
"L.	c #E8D693",
"M.	c #E8D596",
"N.	c #E2CE90",
"O.	c #E5D092",
"P.	c #E6D093",
"Q.	c #EAD498",
"R.	c #E0CC90",
"S.	c #D7C693",
"T.	c #D8D0A4",
"U.	c #E8E1B6",
"V.	c #F2E39E",
"W.	c #F6E7A6",
"X.	c #F1E3A0",
"Y.	c #F2E3A2",
"Z.	c #F2E4A2",
"`.	c #F2E5A4",
" +	c #E6D679",
".+	c #EBCE0E",
"++	c #AD8E37",
"@+	c #FBD405",
"#+	c #D6B283",
"$+	c #EFE09E",
"%+	c #F2E19E",
"&+	c #F6E8AB",
"*+	c #F7E9AB",
"=+	c #F6E7AA",
"-+	c #F3E2A6",
";+	c #EEDB9F",
">+	c #E8D497",
",+	c #E7D294",
"'+	c #E6D090",
")+	c #E2CC89",
"!+	c #DDC987",
"~+	c #E0D3A3",
"{+	c #E8DCA8",
"]+	c #F3E29F",
"^+	c #F8EBA7",
"/+	c #E5D89F",
"(+	c #F8DA1B",
"_+	c #A8863E",
":+	c #E2D590",
"<+	c #F8D004",
"[+	c #D5B384",
"}+	c #F6E7A7",
"|+	c #FAE9AA",
"1+	c #F7E8A6",
"2+	c #F2E6B8",
"3+	c #F1E2A8",
"4+	c #F2E0A2",
"5+	c #F6E7A8",
"6+	c #F9EAAE",
"7+	c #F3E3A9",
"8+	c #F2E2A6",
"9+	c #EDDB9D",
"0+	c #E3CF90",
"a+	c #E7D394",
"b+	c #E7D393",
"c+	c #E6D291",
"d+	c #E1CD8D",
"e+	c #E6D494",
"f+	c #DED198",
"g+	c #E9DAA0",
"h+	c #EDDA9A",
"i+	c #F0DFA1",
"j+	c #EFE0A0",
"k+	c #F0E0A1",
"l+	c #F6E8A6",
"m+	c #E3D358",
"n+	c #D3AD0C",
"o+	c #D1BE97",
"p+	c #EAD87F",
"q+	c #FACD05",
"r+	c #D8B784",
"s+	c #F9ECAD",
"t+	c #F5E5A2",
"u+	c #F5E4A6",
"v+	c #F2E1A4",
"w+	c #ECDA9B",
"x+	c #E8D593",
"y+	c #F4E5A4",
"z+	c #F6E5A7",
"A+	c #F0DEA0",
"B+	c #E1CE8E",
"C+	c #E7D496",
"D+	c #EDDA9B",
"E+	c #EBD799",
"F+	c #E4D193",
"G+	c #E6D396",
"H+	c #DCCE96",
"I+	c #D5C78F",
"J+	c #E5D28F",
"K+	c #F0DE9E",
"L+	c #EFDFA1",
"M+	c #EEDD9F",
"N+	c #E9D89F",
"O+	c #F5D51D",
"P+	c #AE8B48",
"Q+	c #F6E9AE",
"R+	c #E9D883",
"S+	c #FACB06",
"T+	c #DBBA8A",
"U+	c #FCF0B4",
"V+	c #EDDB99",
"W+	c #F1DE9C",
"X+	c #F8E6A2",
"Y+	c #F2DE9E",
"Z+	c #F0DD9C",
"`+	c #EEDB99",
" @	c #E9D597",
".@	c #E3D092",
"+@	c #D9C588",
"@@	c #DAC687",
"#@	c #DDCA8B",
"$@	c #DCCD95",
"%@	c #CDC092",
"&@	c #E4D491",
"*@	c #EEDE9F",
"=@	c #EEDE9D",
"-@	c #E0D17B",
";@	c #EEC007",
">@	c #BEA886",
",@	c #FAF0B3",
"'@	c #EAD988",
")@	c #FBC806",
"!@	c #F1E1A0",
"~@	c #EAD796",
"{@	c #F0DE9D",
"]@	c #EEDD9C",
"^@	c #F4E29E",
"/@	c #EFDB96",
"(@	c #EBDB9C",
"_@	c #EBD893",
":@	c #F1DEA0",
"<@	c #EAD993",
"[@	c #EBD794",
"}@	c #E7D493",
"|@	c #E4D092",
"1@	c #E5D190",
"2@	c #E5D191",
"3@	c #DACB94",
"4@	c #E9DBA2",
"5@	c #EBD896",
"6@	c #F3E1A1",
"7@	c #F6E6A6",
"8@	c #F1E2A3",
"9@	c #E5CA4E",
"0@	c #C79819",
"a@	c #D8CA9F",
"b@	c #E3D398",
"c@	c #E8D37A",
"d@	c #FBC506",
"e@	c #CBA877",
"f@	c #E0CA6A",
"g@	c #DDC78B",
"h@	c #E5D498",
"i@	c #CFB96E",
"j@	c #D8CA8A",
"k@	c #D6BE81",
"l@	c #E3D592",
"m@	c #DBC772",
"n@	c #BCAB83",
"o@	c #D6C26D",
"p@	c #DECB95",
"q@	c #DECD91",
"r@	c #D0BB67",
"s@	c #D8C58E",
"t@	c #E0CE8E",
"u@	c #DBC788",
"v@	c #D8C485",
"w@	c #DCCC97",
"x@	c #E6D8A0",
"y@	c #E2CF8E",
"z@	c #F1E19F",
"A@	c #EADB9E",
"B@	c #F0C82A",
"C@	c #BB8F3D",
"D@	c #C4AB45",
"E@	c #CF9A29",
"F@	c #DAC47C",
"G@	c #F9C106",
"H@	c #CCAA79",
"I@	c #F2C915",
"J@	c #DFB26A",
"K@	c #E4D393",
"L@	c #D09F26",
"M@	c #E4CF6E",
"N@	c #CC9F5D",
"O@	c #E0C961",
"P@	c #AC8638",
"Q@	c #E1CFA2",
"R@	c #D4A126",
"S@	c #E9D49D",
"T@	c #E6D59C",
"U@	c #D2A328",
"V@	c #E8D39C",
"W@	c #E8D699",
"X@	c #E5D192",
"Y@	c #DDCE9C",
"Z@	c #E5D69D",
"`@	c #F1E19E",
" #	c #F3E29E",
".#	c #E9DCA2",
"+#	c #FAC810",
"@#	c #AE8652",
"##	c #C69746",
"$#	c #D3A44A",
"%#	c #C6A76E",
"&#	c #FABD07",
"*#	c #D1AD7D",
"=#	c #DAAC1C",
"-#	c #E2A126",
";#	c #E4D297",
">#	c #CF9829",
",#	c #E5CD6C",
"'#	c #D6A63F",
")#	c #B78B2F",
"!#	c #DDCC9A",
"~#	c #E9D9A2",
"{#	c #D39B20",
"]#	c #EAD8A4",
"^#	c #E3D39E",
"/#	c #D59E2A",
"(#	c #E3D298",
"_#	c #E3D091",
":#	c #E5D091",
"<#	c #E2CF95",
"[#	c #D2C392",
"}#	c #C6BC91",
"|#	c #DFCD91",
"1#	c #E7D595",
"2#	c #EFDFA2",
"3#	c #E2CF87",
"4#	c #FABF07",
"5#	c #BE9671",
"6#	c #D7912A",
"7#	c #B98C3E",
"8#	c #CDB672",
"9#	c #FBBA05",
"0#	c #D3AF7F",
"a#	c #D0952C",
"b#	c #DB9E36",
"c#	c #D3A35E",
"d#	c #D39B2B",
"e#	c #E6CF6E",
"f#	c #F2B607",
"g#	c #C6A880",
"h#	c #F5E5A4",
"i#	c #ECDCA6",
"j#	c #DBAA27",
"k#	c #E8D69F",
"l#	c #E9D9A1",
"m#	c #D69F26",
"n#	c #EBD9A3",
"o#	c #ECD89C",
"p#	c #E4D091",
"q#	c #DFCC93",
"r#	c #D6C992",
"s#	c #E3D393",
"t#	c #EBDB9E",
"u#	c #E3CC74",
"v#	c #FABF05",
"w#	c #D3A81F",
"x#	c #DBA11A",
"y#	c #D19113",
"z#	c #DEA518",
"A#	c #F8B004",
"B#	c #CEA878",
"C#	c #D09526",
"D#	c #D5B276",
"E#	c #E5A024",
"F#	c #D29226",
"G#	c #E2C969",
"H#	c #E29D0D",
"I#	c #DAA363",
"J#	c #EFDF99",
"K#	c #E8D9A0",
"L#	c #ECBB21",
"M#	c #E0C14D",
"N#	c #E2C44A",
"O#	c #DD9E22",
"P#	c #ECDA9F",
"Q#	c #EFDD9B",
"R#	c #EAD79C",
"S#	c #E3D396",
"T#	c #DBD09B",
"U#	c #DACA97",
"V#	c #E8D89E",
"W#	c #EDDEA3",
"X#	c #E2C96E",
"Y#	c #F0A805",
"Z#	c #BF9E7E",
"`#	c #DCBE6E",
" $	c #BD8C5E",
".$	c #D9B86B",
"+$	c #FCB204",
"@$	c #D4AE80",
"#$	c #D29628",
"$$	c #DDA330",
"%$	c #D9901F",
"&$	c #E5CC6C",
"*$	c #C37F35",
"=$	c #DE9932",
"-$	c #F3E4A4",
";$	c #ECDDA4",
">$	c #D59D21",
",$	c #A27450",
"'$	c #A97B54",
")$	c #DB991B",
"!$	c #E6D39A",
"~$	c #E9D799",
"{$	c #E6D398",
"]$	c #E5D493",
"^$	c #C9C392",
"/$	c #DBCE9B",
"($	c #DECC8E",
"_$	c #E2D197",
":$	c #E1C972",
"<$	c #EE9C04",
"[$	c #DCC38F",
"}$	c #E6CF78",
"|$	c #D2A564",
"1$	c #ECD587",
"2$	c #FBB004",
"3$	c #D2AE82",
"4$	c #D29427",
"5$	c #F0DDA0",
"6$	c #E0C07D",
"7$	c #D68E1D",
"8$	c #E3C869",
"9$	c #C99458",
"0$	c #E69F1A",
"a$	c #E7CF97",
"b$	c #EEDEA7",
"c$	c #D89924",
"d$	c #EBD8A0",
"e$	c #EDDCA4",
"f$	c #DB9E27",
"g$	c #EDDAA0",
"h$	c #EFDD9E",
"i$	c #EFDD9D",
"j$	c #E6D391",
"k$	c #C0B786",
"l$	c #D7D3A9",
"m$	c #CBBB82",
"n$	c #BAAA7A",
"o$	c #E1CF93",
"p$	c #E9DA9F",
"q$	c #E1C86E",
"r$	c #F19B06",
"s$	c #DFC595",
"t$	c #CDB67A",
"u$	c #BD986B",
"v$	c #E9D37E",
"w$	c #FAA904",
"x$	c #D1AC80",
"y$	c #D59228",
"z$	c #ECD89B",
"A$	c #E6D493",
"B$	c #CF8D22",
"C$	c #E8C867",
"D$	c #D4A263",
"E$	c #E4B044",
"F$	c #DCAC66",
"G$	c #E9D99F",
"H$	c #D6941F",
"I$	c #E3CF96",
"J$	c #E6D49C",
"K$	c #D79A24",
"L$	c #E9D599",
"M$	c #ECDB97",
"N$	c #EEDC9A",
"O$	c #E7D395",
"P$	c #CABC90",
"Q$	c #D4CAA0",
"R$	c #A8996D",
"S$	c #DAC588",
"T$	c #E5D394",
"U$	c #E3C771",
"V$	c #EF9904",
"W$	c #E0C195",
"X$	c #F4E8AC",
"Y$	c #F3E3A2",
"Z$	c #E8D077",
"`$	c #F8A306",
" %	c #CEA678",
".%	c #D59223",
"+%	c #EBD698",
"@%	c #EAD89C",
"#%	c #D49226",
"$%	c #E7C669",
"%%	c #D4A065",
"&%	c #DFBD76",
"*%	c #E2A037",
"=%	c #E9D9A5",
"-%	c #D59522",
";%	c #E8D69C",
">%	c #D39724",
",%	c #E6D096",
"'%	c #E0CD8D",
")%	c #E2CE8D",
"!%	c #DFCB8A",
"~%	c #D0C293",
"{%	c #D7C898",
"]%	c #DCC78A",
"^%	c #E4CE91",
"/%	c #E7D494",
"(%	c #ECDA9A",
"_%	c #E1BE5A",
":%	c #F8A008",
"<%	c #DEBC80",
"[%	c #F5E9A8",
"}%	c #F7E9A7",
"|%	c #E9CB70",
"1%	c #F79E08",
"2%	c #D1A86A",
"3%	c #D08E26",
"4%	c #F1E1A8",
"5%	c #EADA97",
"6%	c #D28E27",
"7%	c #E7C866",
"8%	c #DCA65C",
"9%	c #ECDAA5",
"0%	c #EB9F17",
"a%	c #DDC590",
"b%	c #DB9720",
"c%	c #E8D198",
"d%	c #E8D69E",
"e%	c #D79420",
"f%	c #EED9A0",
"g%	c #EEDA99",
"h%	c #E9D493",
"i%	c #DBC888",
"j%	c #D2C497",
"k%	c #DFCF9E",
"l%	c #DCC88B",
"m%	c #E6D196",
"n%	c #ECD99B",
"o%	c #EEDEA0",
"p%	c #B3946D",
"q%	c #A57E4E",
"r%	c #D1B989",
"s%	c #F8EAAE",
"t%	c #BDA777",
"u%	c #AC864F",
"v%	c #B99C72",
"w%	c #AD8C5D",
"x%	c #EDDBA2",
"y%	c #E9D898",
"z%	c #D28F25",
"A%	c #BDA477",
"B%	c #B99C70",
"C%	c #ECDC9B",
"D%	c #AB855A",
"E%	c #BCA17F",
"F%	c #A88258",
"G%	c #DDC899",
"H%	c #E3D09A",
"I%	c #AA885C",
"J%	c #E2D09B",
"K%	c #EED998",
"L%	c #E4D191",
"M%	c #C9BD92",
"N%	c #C7BA91",
"O%	c #C1AD7D",
"P%	c #E2D094",
"Q%	c #DDCC8F",
"R%	c #E9D99B",
"S%	c #F1E2A2",
"T%	c #F4E5AC",
"U%	c #F1E1A4",
"V%	c #EAD798",
"W%	c #E6D395",
"X%	c #E8D595",
"Y%	c #F1E2A1",
"Z%	c #F2E3A3",
"`%	c #EAD99F",
" &	c #B39773",
".&	c #F0E2AA",
"+&	c #F3E5A7",
"@&	c #F9EAB1",
"#&	c #F2E3A9",
"$&	c #EEDEA2",
"%&	c #E9D699",
"&&	c #E7D598",
"*&	c #E1CF92",
"=&	c #D5C082",
"-&	c #D2C080",
";&	c #AAA179",
">&	c #AF9F6A",
",&	c #C2AF77",
"'&	c #D0BD82",
")&	c #D9C68C",
"!&	c #E6D59B",
"~&	c #E7D8A0",
"{&	c #EEDFA6",
"]&	c #EBDCA2",
"^&	c #EBDC9F",
"/&	c #EDDC9F",
"(&	c #EDDA9D",
"_&	c #EDDB9C",
":&	c #F2E2A1",
"<&	c #F8E9AE",
"[&	c #F3E4A8",
"}&	c #EAD799",
"|&	c #E5D193",
"1&	c #ECDC9D",
"2&	c #ECDB9E",
"3&	c #ECDB9D",
"4&	c #EDDA99",
"5&	c #EAD795",
"6&	c #EAD79A",
"7&	c #E8D398",
"8&	c #DFCB8F",
"9&	c #D2C085",
"0&	c #D4CCA4",
"a&	c #B0A683",
"b&	c #AF9A6C",
"c&	c #BBA773",
"d&	c #C8B47D",
"e&	c #DAC78D",
"f&	c #E2CF94",
"g&	c #E3D198",
"h&	c #E2D39A",
"i&	c #E8D9A1",
"j&	c #EADB9F",
"k&	c #E6D799",
"l&	c #E6D698",
"m&	c #E7D698",
"n&	c #EAD89A",
"o&	c #ECD99A",
"p&	c #EBD899",
"q&	c #E9D697",
"r&	c #E2CF90",
"s&	c #ECD897",
"t&	c #EBD798",
"u&	c #D5C185",
"v&	c #CCB87D",
"w&	c #A9A588",
"x&	c #AFA37B",
"y&	c #BDAC78",
"z&	c #C4B37E",
"A&	c #D0BF8C",
"B&	c #D0C28B",
"C&	c #D8CA94",
"D&	c #DACB92",
"E&	c #DECE96",
"F&	c #DECE95",
"G&	c #D8C78E",
"H&	c #D9C88E",
"I&	c #DDCC91",
"J&	c #D4C189",
"K&	c #D5C188",
"L&	c #EBD898",
"M&	c #EDD99C",
"N&	c #E3D093",
"O&	c #E4D093",
"P&	c #E5D196",
"Q&	c #E4D096",
"R&	c #E4D095",
"S&	c #E4D296",
"T&	c #E3D095",
"U&	c #D8C488",
"V&	c #D0BD7D",
"W&	c #C8B478",
"X&	c #AFAA97",
"Y&	c #9D9783",
"Z&	c #A6A090",
"`&	c #ABA793",
" *	c #B4AF97",
".*	c #BBAF80",
"+*	c #C8B982",
"@*	c #C4B37D",
"#*	c #C7B882",
"$*	c #C9B984",
"%*	c #BFAC79",
"&*	c #C1AD76",
"**	c #C0AA75",
"=*	c #C5B17A",
"-*	c #CFBD84",
";*	c #D4C287",
">*	c #D8C588",
",*	c #DAC48A",
"'*	c #D6BF85",
")*	c #D7C285",
"!*	c #DDC88B",
"~*	c #DFCA91",
"{*	c #DBC78D",
"]*	c #D7C489",
"^*	c #D5C187",
"/*	c #CDBA80",
"(*	c #C5B175",
"_*	c #C9B673",
":*	c #BEAC70",
"<*	c #CEC7A3",
"[*	c #CABB8A",
"}*	c #C2B17B",
"|*	c #C2B27C",
"1*	c #C2B17A",
"2*	c #A8986C",
"3*	c #B09B6C",
"4*	c #BFA56F",
"5*	c #BFA871",
"6*	c #C0A973",
"7*	c #C1AC74",
"8*	c #C6AE74",
"9*	c #CBB176",
"0*	c #D1BA7B",
"a*	c #D2BB7C",
"b*	c #D0B87A",
"c*	c #D1BE7F",
"d*	c #D2BF82",
"e*	c #CFBA80",
"f*	c #C7B279",
"g*	c #C2B077",
"h*	c #C1AE76",
"i*	c #C8B078",
"j*	c #C0AA6E",
"k*	c #C6BB9A",
"l*	c #BBAF87",
"m*	c #C3B38B",
"n*	c #C8B880",
"o*	c #C8BE93",
"p*	c #B4A57B",
"q*	c #B8A871",
"r*	c #A79A79",
"s*	c #B1A17C",
"t*	c #B5A784",
"u*	c #B1A071",
"v*	c #B9A877",
"w*	c #A9996D",
"x*	c #BBA876",
"y*	c #C2AD76",
"z*	c #B8A475",
"A*	c #B8A473",
"B*	c #B8A370",
"C*	c #AF9A6A",
"D*	c #AE996C",
"E*	c #AE9C6B",
"F*	c #9D926F",
"G*	c #B1AE9E",
"H*	c #A5A497",
"I*	c #A4A294",
"                                                                ",
"  . +   @ # $ % & * = -               ; > , ' ) ! ~ {           ",
"  ] ^ / ( _ : < [ } | 1 2 3 4 5 6 7 8 9 0 a b c d e f           ",
"  g h i j k l m n o p q r s t u v w x y z A B C D E F G         ",
"    H I J K L M N O P Q R S T U V W o X Y Z `  ...+.@.#.        ",
"    $.%.&.*.=.-.;.>.,.'.).!.~.{.O ].^./.(._.:.<.[.}.|.1.        ",
"    2.3.4.5.6.7.8.9.0.a.b.c.d.e.f.g.h.i.j.k.b l.m.n.o.p.q.      ",
"    r.s.t.u.v.w.x.y.z.A.B.C.D.E.F.G.H.I.J.K.L.M.N.O.P.Q.R.S.T.  ",
"  U.V.W.X.Y.Z.`. +.+++@+#+$+%+W.&+: | *+=+r.-+;+>+,+'+)+!+N.~+  ",
"  {+]+s.Y.W.^+/+(+_+:+<+[+}+|+1+2+3+4+5+6+7+8+9+0+a+b+c+d+e+f+  ",
"  g+h+i+j+k+l+m+n+o+p+q+r+s+t+u+v+w+x+y+z+A+A M.B+C+D+E+F+G+H+  ",
"  I+J+K+L+M+N+O+P+Q+R+S+T+U+4+/.V+W+X+t+Y+Z+`+(. @ ..@+@@@#@$@  ",
"  %@&@/.*@=@-@;@>@,@'@)@r+!@~@{@]@^@/@(@_@:@<@[@}@z |@s 1@2@3@  ",
"  4@5@6@7@8@9@0@a@b@c@d@e@f@g@h@i@j@k@l@m@n@o@p@q@r@s@t@u@v@w@  ",
"  x@y@l.z@A@B@C@D@E@F@G@H@I@J@K@L@M@N@O@P@Q@R@S@T@U@V@W@X@C+Y@  ",
"  Z@`@ #-..#+#@###$#%#&#*#=#-#;#>#,#'#)#!#~#{#]#^#/#(#_#:#<#[#  ",
"  }#|#1#2#3#4#5#6#7#8#9#0#a#b#c#d#e#f#g#h#i#j#k#l#m#n#o#p#q#r#  ",
"    s#t#A@u#v#w#x#y#z#A#B#C#D#E#F#G#H#I#J#K#L#M#N#O#P#Q#R#S#T#  ",
"    U#V#W#X#Y#Z#`# $.$+$@$#$M+$$%$&$*$=$-$;$>$,$'$)$!$~${$]$^$  ",
"  /$($_$x@:$<$[$}$|$1$2$3$4$5$6$7$8$9$0$a$b$c$d$e$f$g$h$i$j$k$  ",
"l$m$n$o$p$q$r$s$t$u$v$w$x$y$z$A$B$C$D$E$F$G$H$I$J$K$L$M$N$O$P$  ",
"Q$R$S$N.T$U$V$W$X$Y$Z$`$ %.%+%@%#%$%%%&%*%=%-%C ;%>%,%'%)%!%~%  ",
"{%]%^%/%(%_%:%<%[%}%|%1%2%3%4%5%6%7%8%9%0%a%b%c%d%e%f%g%h%i%j%  ",
"k%l%m%n%o%p%q%r%s%}+t%u%v%w%x%y%z%A%B%C%D%E%F%G%H%I%J%i$K%L%M%  ",
"N%O%t P%Q%R%S%6+T%U%V%W%X%Y%Z%`% &.&+&E.@&#&$&%&N.&&~$*&=&-&    ",
";&>&,&'&)&!&~&{&]&^&/&(&_&:&<&[&$&}&|&1&2&@%3&4&5&6&7&7&8&9&0&  ",
"a&b&c&d&e&f&g&h&i&j&k&l&m&m&m&n&J.o&p&q&|@r&4&`+s&5@t&z$R.u&v&  ",
"w&x&y&z&A&B&C&D&E&F&G&H&I&J&K&t /%L&M&%&N&R.O&P&Q&R&S&T&U&V&W&  ",
"    X&Y&Z&`& *.*+*@*#*$*%*&***=*-*;*>*,*'*)*!*~*{*]*^*/*(*_*:*  ",
"              <*[*}*|*1*2*3*4*5*6*7*8*9*0*a*b*c*d*e*f*g*h*i*j*  ",
"                k*l*m*n*o*p*q*r*s*t*u*v*w*x*y*z*A*B*B*C*D*E*F*  ",
"                      G*                                H*I*    "};
